<svg viewBox="0 0 24 24" width="24" height="24" xmlns="http://www.w3.org/2000/svg" aria-hidden="true"><path fill="currentColor" d="M12 .5C5.73.5.98 5.24.98 11.5c0 4.85 3.15 8.96 7.51 10.41.55.1.75-.24.75-.54 0-.27-.01-1.14-.02-2.07-3.05.66-3.7-1.31-3.7-1.31-.5-1.27-1.22-1.6-1.22-1.6-.99-.67.08-.66.08-.66 1.1.08 1.68 1.12 1.68 1.12.97 1.67 2.55 1.19 3.17.9.1-.7.38-1.18.69-1.45-2.43-.28-4.98-1.21-4.98-5.4 0-1.19.43-2.16 1.12-2.92-.11-.28-.49-1.41.11-2.93 0 0 .92-.29 3.02 1.12a10.5 10.5 0 0 1 2.75-.37c.93 0 1.88.13 2.75.37 2.1-1.41 3.02-1.12 3.02-1.12.6 1.52.22 2.65.11 2.93.7.76 1.12 1.73 1.12 2.92 0 4.2-2.56 5.12-5 5.39.39.33.73.99.73 2 0 1.44-.01 2.6-.01 2.95 0 .3.2.65.76.54A10.53 10.53 0 0 0 23.02 11.5C23.02 5.24 18.27.5 12 .5z"/></svg>

